<mxfile host="app.diagrams.net" modified="2024-06-12T17:23:08.809Z" agent="Mozilla/5.0 (Windows NT 10.0; Win64; x64) AppleWebKit/537.36 (KHTML, like Gecko) Chrome/125.0.0.0 Safari/537.36" etag="AWM3AKfZErfe3NYaES3f" version="24.2.7" type="device">
  <diagram id="6a731a19-8d31-9384-78a2-239565b7b9f0" name="Page-1">
    <mxGraphModel dx="1434" dy="772" grid="1" gridSize="10" guides="1" tooltips="1" connect="1" arrows="1" fold="1" page="1" pageScale="1" pageWidth="1169" pageHeight="827" background="none" math="0" shadow="0">
      <root>
        <mxCell id="0" />
        <mxCell id="1" parent="0" />
        <mxCell id="PxfDVj1_c2ccCcwhHUFk-1784" value="Results" style="html=1;whiteSpace=wrap;strokeColor=none;fillColor=#0079D6;labelPosition=center;verticalLabelPosition=middle;verticalAlign=top;align=center;fontSize=12;outlineConnect=0;spacingTop=-6;fontColor=#FFFFFF;sketch=0;shape=mxgraph.sitemap.products;" vertex="1" parent="1">
          <mxGeometry x="96.5" y="517" width="120" height="70" as="geometry" />
        </mxCell>
        <mxCell id="PxfDVj1_c2ccCcwhHUFk-1808" style="edgeStyle=orthogonalEdgeStyle;rounded=0;orthogonalLoop=1;jettySize=auto;html=1;entryX=0;entryY=0.5;entryDx=0;entryDy=0;curved=1;exitX=1;exitY=0.75;exitDx=0;exitDy=0;exitPerimeter=0;" edge="1" parent="1" source="PxfDVj1_c2ccCcwhHUFk-1785" target="PxfDVj1_c2ccCcwhHUFk-1798">
          <mxGeometry relative="1" as="geometry" />
        </mxCell>
        <mxCell id="PxfDVj1_c2ccCcwhHUFk-1785" value="Filters and Search" style="html=1;whiteSpace=wrap;strokeColor=none;fillColor=#0079D6;labelPosition=center;verticalLabelPosition=middle;verticalAlign=top;align=center;fontSize=12;outlineConnect=0;spacingTop=-6;fontColor=#FFFFFF;sketch=0;shape=mxgraph.sitemap.search;" vertex="1" parent="1">
          <mxGeometry x="96.5" y="397" width="120" height="70" as="geometry" />
        </mxCell>
        <mxCell id="PxfDVj1_c2ccCcwhHUFk-1802" style="edgeStyle=orthogonalEdgeStyle;rounded=0;orthogonalLoop=1;jettySize=auto;html=1;entryX=0;entryY=0.5;entryDx=0;entryDy=0;curved=1;" edge="1" parent="1" source="PxfDVj1_c2ccCcwhHUFk-1786" target="PxfDVj1_c2ccCcwhHUFk-1796">
          <mxGeometry relative="1" as="geometry" />
        </mxCell>
        <mxCell id="PxfDVj1_c2ccCcwhHUFk-1786" value="Upload Log File" style="html=1;whiteSpace=wrap;strokeColor=none;fillColor=#0079D6;labelPosition=center;verticalLabelPosition=middle;verticalAlign=top;align=center;fontSize=12;outlineConnect=0;spacingTop=-6;fontColor=#FFFFFF;sketch=0;shape=mxgraph.sitemap.upload;" vertex="1" parent="1">
          <mxGeometry x="96.5" y="157" width="120" height="70" as="geometry" />
        </mxCell>
        <mxCell id="PxfDVj1_c2ccCcwhHUFk-1805" style="edgeStyle=orthogonalEdgeStyle;rounded=0;orthogonalLoop=1;jettySize=auto;html=1;entryX=0;entryY=0.5;entryDx=0;entryDy=0;curved=1;exitX=1;exitY=0.75;exitDx=0;exitDy=0;exitPerimeter=0;" edge="1" parent="1" source="PxfDVj1_c2ccCcwhHUFk-1787" target="PxfDVj1_c2ccCcwhHUFk-1797">
          <mxGeometry relative="1" as="geometry" />
        </mxCell>
        <mxCell id="PxfDVj1_c2ccCcwhHUFk-1787" value="Grouping Criteria" style="html=1;whiteSpace=wrap;strokeColor=none;fillColor=#0079D6;labelPosition=center;verticalLabelPosition=middle;verticalAlign=top;align=center;fontSize=12;outlineConnect=0;spacingTop=-6;fontColor=#FFFFFF;sketch=0;shape=mxgraph.sitemap.services;" vertex="1" parent="1">
          <mxGeometry x="96.5" y="277" width="120" height="70" as="geometry" />
        </mxCell>
        <mxCell id="PxfDVj1_c2ccCcwhHUFk-1788" value="REACT&amp;nbsp; &amp;nbsp;FRAMEWORK" style="shape=delay;whiteSpace=wrap;html=1;rotation=90;strokeWidth=2;fontSize=14;fontStyle=1;fillColor=#e6d0de;strokeColor=#996185;gradientColor=#d5739d;fontColor=#FCFCFC;" vertex="1" parent="1">
          <mxGeometry x="-160" y="354.5" width="435" height="40" as="geometry" />
        </mxCell>
        <mxCell id="PxfDVj1_c2ccCcwhHUFk-1820" value="" style="edgeStyle=orthogonalEdgeStyle;rounded=0;orthogonalLoop=1;jettySize=auto;html=1;curved=1;" edge="1" parent="1" source="PxfDVj1_c2ccCcwhHUFk-1795" target="PxfDVj1_c2ccCcwhHUFk-1817">
          <mxGeometry relative="1" as="geometry" />
        </mxCell>
        <mxCell id="PxfDVj1_c2ccCcwhHUFk-1795" value="&lt;ul style=&quot;font-size: 14px; text-align: left;&quot;&gt;&lt;li style=&quot;&quot;&gt;Map Log File&lt;/li&gt;&lt;/ul&gt;" style="rounded=1;whiteSpace=wrap;html=1;fillColor=#d5e8d4;gradientColor=#97d077;strokeColor=#82b366;" vertex="1" parent="1">
          <mxGeometry x="536.5" y="137" width="190" height="90" as="geometry" />
        </mxCell>
        <mxCell id="PxfDVj1_c2ccCcwhHUFk-1803" style="edgeStyle=orthogonalEdgeStyle;rounded=0;orthogonalLoop=1;jettySize=auto;html=1;entryX=0;entryY=0.5;entryDx=0;entryDy=0;curved=1;" edge="1" parent="1" source="PxfDVj1_c2ccCcwhHUFk-1796" target="PxfDVj1_c2ccCcwhHUFk-1795">
          <mxGeometry relative="1" as="geometry" />
        </mxCell>
        <mxCell id="PxfDVj1_c2ccCcwhHUFk-1796" value="GO" style="ellipse;whiteSpace=wrap;html=1;fontSize=20;fontStyle=1;fillColor=#d5e8d4;strokeColor=#82b366;gradientColor=#97d077;" vertex="1" parent="1">
          <mxGeometry x="336.5" y="217" width="120" height="80" as="geometry" />
        </mxCell>
        <mxCell id="PxfDVj1_c2ccCcwhHUFk-1806" style="edgeStyle=orthogonalEdgeStyle;rounded=0;orthogonalLoop=1;jettySize=auto;html=1;entryX=0;entryY=0.372;entryDx=0;entryDy=0;curved=1;entryPerimeter=0;" edge="1" parent="1" source="PxfDVj1_c2ccCcwhHUFk-1797" target="PxfDVj1_c2ccCcwhHUFk-1800">
          <mxGeometry relative="1" as="geometry" />
        </mxCell>
        <mxCell id="PxfDVj1_c2ccCcwhHUFk-1797" value="PYTHON" style="ellipse;whiteSpace=wrap;html=1;fontSize=20;fontStyle=1;fillColor=#dae8fc;strokeColor=#6c8ebf;gradientColor=#7ea6e0;" vertex="1" parent="1">
          <mxGeometry x="336.5" y="334.5" width="120" height="80" as="geometry" />
        </mxCell>
        <mxCell id="PxfDVj1_c2ccCcwhHUFk-1810" style="edgeStyle=orthogonalEdgeStyle;rounded=0;orthogonalLoop=1;jettySize=auto;html=1;entryX=0;entryY=0.5;entryDx=0;entryDy=0;curved=1;" edge="1" parent="1" source="PxfDVj1_c2ccCcwhHUFk-1798" target="PxfDVj1_c2ccCcwhHUFk-1809">
          <mxGeometry relative="1" as="geometry" />
        </mxCell>
        <mxCell id="PxfDVj1_c2ccCcwhHUFk-1798" value="&lt;font style=&quot;font-size: 16px;&quot;&gt;JAVASCRIPT&lt;/font&gt;" style="ellipse;whiteSpace=wrap;html=1;fontSize=20;fontStyle=1;fillColor=#fff2cc;strokeColor=#d6b656;gradientColor=#ffd966;fontColor=#000000;" vertex="1" parent="1">
          <mxGeometry x="336.5" y="451" width="120" height="80" as="geometry" />
        </mxCell>
        <mxCell id="PxfDVj1_c2ccCcwhHUFk-1821" value="" style="edgeStyle=orthogonalEdgeStyle;rounded=0;orthogonalLoop=1;jettySize=auto;html=1;curved=1;" edge="1" parent="1" source="PxfDVj1_c2ccCcwhHUFk-1800" target="PxfDVj1_c2ccCcwhHUFk-1818">
          <mxGeometry relative="1" as="geometry" />
        </mxCell>
        <mxCell id="PxfDVj1_c2ccCcwhHUFk-1800" value="&lt;ul style=&quot;font-size: 14px; text-align: left;&quot;&gt;&lt;li style=&quot;&quot;&gt;&lt;span style=&quot;background-color: initial;&quot;&gt;Evaluate Grouping Criteria&lt;/span&gt;&lt;/li&gt;&lt;/ul&gt;" style="rounded=1;whiteSpace=wrap;html=1;fillColor=#dae8fc;gradientColor=#7ea6e0;strokeColor=#6c8ebf;" vertex="1" parent="1">
          <mxGeometry x="536.5" y="317" width="190" height="90" as="geometry" />
        </mxCell>
        <mxCell id="PxfDVj1_c2ccCcwhHUFk-1804" style="edgeStyle=orthogonalEdgeStyle;rounded=0;orthogonalLoop=1;jettySize=auto;html=1;entryX=1;entryY=0.5;entryDx=0;entryDy=0;entryPerimeter=0;curved=1;exitX=0;exitY=1;exitDx=0;exitDy=0;" edge="1" parent="1" source="PxfDVj1_c2ccCcwhHUFk-1796" target="PxfDVj1_c2ccCcwhHUFk-1787">
          <mxGeometry relative="1" as="geometry" />
        </mxCell>
        <mxCell id="PxfDVj1_c2ccCcwhHUFk-1807" style="edgeStyle=orthogonalEdgeStyle;rounded=0;orthogonalLoop=1;jettySize=auto;html=1;entryX=1;entryY=0.5;entryDx=0;entryDy=0;entryPerimeter=0;curved=1;exitX=0;exitY=1;exitDx=0;exitDy=0;" edge="1" parent="1" source="PxfDVj1_c2ccCcwhHUFk-1797" target="PxfDVj1_c2ccCcwhHUFk-1785">
          <mxGeometry relative="1" as="geometry" />
        </mxCell>
        <mxCell id="PxfDVj1_c2ccCcwhHUFk-1811" style="edgeStyle=orthogonalEdgeStyle;rounded=0;orthogonalLoop=1;jettySize=auto;html=1;curved=1;exitX=0.5;exitY=1;exitDx=0;exitDy=0;" edge="1" parent="1" source="PxfDVj1_c2ccCcwhHUFk-1819" target="PxfDVj1_c2ccCcwhHUFk-1784">
          <mxGeometry relative="1" as="geometry" />
        </mxCell>
        <mxCell id="PxfDVj1_c2ccCcwhHUFk-1825" value="&lt;font color=&quot;#00cc00&quot;&gt;Results&lt;/font&gt;" style="edgeLabel;html=1;align=center;verticalAlign=middle;resizable=0;points=[];fontSize=20;fontStyle=1;fontColor=#0000FF;" vertex="1" connectable="0" parent="PxfDVj1_c2ccCcwhHUFk-1811">
          <mxGeometry x="-0.1821" y="-1" relative="1" as="geometry">
            <mxPoint as="offset" />
          </mxGeometry>
        </mxCell>
        <mxCell id="PxfDVj1_c2ccCcwhHUFk-1822" value="" style="edgeStyle=orthogonalEdgeStyle;rounded=0;orthogonalLoop=1;jettySize=auto;html=1;curved=1;" edge="1" parent="1" source="PxfDVj1_c2ccCcwhHUFk-1809" target="PxfDVj1_c2ccCcwhHUFk-1819">
          <mxGeometry relative="1" as="geometry" />
        </mxCell>
        <mxCell id="PxfDVj1_c2ccCcwhHUFk-1809" value="&lt;ul style=&quot;font-size: 14px; text-align: left;&quot;&gt;&lt;li&gt;Filter and Search Information&lt;/li&gt;&lt;/ul&gt;" style="rounded=1;whiteSpace=wrap;html=1;fillColor=#fff2cc;gradientColor=#ffd966;strokeColor=#d6b656;fontColor=#000000;" vertex="1" parent="1">
          <mxGeometry x="536.5" y="477" width="190" height="90" as="geometry" />
        </mxCell>
        <mxCell id="PxfDVj1_c2ccCcwhHUFk-1814" value="Generate DLL" style="text;html=1;align=center;verticalAlign=middle;whiteSpace=wrap;rounded=0;fontStyle=1;fontColor=#FF0000;" vertex="1" parent="1">
          <mxGeometry x="351.5" y="187" width="90" height="30" as="geometry" />
        </mxCell>
        <mxCell id="PxfDVj1_c2ccCcwhHUFk-1815" value="Create Service" style="text;html=1;align=center;verticalAlign=middle;whiteSpace=wrap;rounded=0;fontStyle=1;fontColor=#FF0000;" vertex="1" parent="1">
          <mxGeometry x="351.5" y="304.5" width="90" height="30" as="geometry" />
        </mxCell>
        <mxCell id="PxfDVj1_c2ccCcwhHUFk-1816" value="Data Structure" style="text;html=1;align=center;verticalAlign=middle;whiteSpace=wrap;rounded=0;fontStyle=1;fontColor=#FF0000;" vertex="1" parent="1">
          <mxGeometry x="351.5" y="427" width="90" height="30" as="geometry" />
        </mxCell>
        <mxCell id="PxfDVj1_c2ccCcwhHUFk-1823" style="edgeStyle=orthogonalEdgeStyle;rounded=0;orthogonalLoop=1;jettySize=auto;html=1;exitX=0.5;exitY=1;exitDx=0;exitDy=0;entryX=0.5;entryY=0;entryDx=0;entryDy=0;curved=1;" edge="1" parent="1" source="PxfDVj1_c2ccCcwhHUFk-1817" target="PxfDVj1_c2ccCcwhHUFk-1800">
          <mxGeometry relative="1" as="geometry" />
        </mxCell>
        <mxCell id="PxfDVj1_c2ccCcwhHUFk-1817" value="&lt;ul style=&quot;font-size: 14px; text-align: left;&quot;&gt;&lt;li style=&quot;&quot;&gt;Store mapped data&lt;/li&gt;&lt;li style=&quot;&quot;&gt;Implement Store Data Component&lt;/li&gt;&lt;/ul&gt;" style="rounded=1;whiteSpace=wrap;html=1;fillColor=#d5e8d4;gradientColor=#97d077;strokeColor=#82b366;" vertex="1" parent="1">
          <mxGeometry x="816.5" y="157" width="190" height="90" as="geometry" />
        </mxCell>
        <mxCell id="PxfDVj1_c2ccCcwhHUFk-1824" style="edgeStyle=orthogonalEdgeStyle;rounded=0;orthogonalLoop=1;jettySize=auto;html=1;curved=1;exitX=0.5;exitY=1;exitDx=0;exitDy=0;" edge="1" parent="1" source="PxfDVj1_c2ccCcwhHUFk-1818" target="PxfDVj1_c2ccCcwhHUFk-1809">
          <mxGeometry relative="1" as="geometry" />
        </mxCell>
        <mxCell id="PxfDVj1_c2ccCcwhHUFk-1818" value="&lt;ul style=&quot;font-size: 14px; text-align: left;&quot;&gt;&lt;li style=&quot;&quot;&gt;Run Algorithms to Reduce and Reorganize Information&lt;/li&gt;&lt;/ul&gt;" style="rounded=1;whiteSpace=wrap;html=1;fillColor=#dae8fc;gradientColor=#7ea6e0;strokeColor=#6c8ebf;" vertex="1" parent="1">
          <mxGeometry x="816.5" y="337" width="190" height="90" as="geometry" />
        </mxCell>
        <mxCell id="PxfDVj1_c2ccCcwhHUFk-1819" value="&lt;ul style=&quot;font-size: 14px; text-align: left;&quot;&gt;&lt;li&gt;Format Response&lt;/li&gt;&lt;/ul&gt;" style="rounded=1;whiteSpace=wrap;html=1;fillColor=#fff2cc;gradientColor=#ffd966;strokeColor=#d6b656;fontColor=#000000;" vertex="1" parent="1">
          <mxGeometry x="816.5" y="507" width="190" height="90" as="geometry" />
        </mxCell>
        <mxCell id="PxfDVj1_c2ccCcwhHUFk-1826" value="ENBEBED JETTY SERVER" style="shape=delay;whiteSpace=wrap;html=1;rotation=0;strokeWidth=2;fontSize=14;fontStyle=1;fillColor=#ffcd28;strokeColor=#d79b00;gradientColor=#ffa500;fontColor=#FCFCFC;" vertex="1" parent="1">
          <mxGeometry x="96.5" y="80" width="920" height="40" as="geometry" />
        </mxCell>
        <mxCell id="PxfDVj1_c2ccCcwhHUFk-1827" value="&lt;font color=&quot;#00cc00&quot; style=&quot;font-size: 30px;&quot;&gt;Bandog&lt;/font&gt; &lt;font style=&quot;font-size: 24px;&quot; color=&quot;#97d077&quot;&gt;- Log File Analyzer&lt;/font&gt;" style="text;html=1;align=center;verticalAlign=middle;whiteSpace=wrap;rounded=0;fontSize=20;fontStyle=1" vertex="1" parent="1">
          <mxGeometry x="294.75" y="17" width="523.5" height="30" as="geometry" />
        </mxCell>
      </root>
    </mxGraphModel>
  </diagram>
</mxfile>
